# xmcd
#
# Track frame offsets:
#	150
#	14054
#	28182
#	36500
#	51124
#	71839
#	88375
#	100253
#	117804
#	132600
#	149629
#	165754
#	183241
#	200028
#	217936
#	227057
#	240143
#	246642
#	267516
#	278431
#
# Disc length: 3956 seconds
#
# Revision: 0
# Processed by: cddbd v1.5.2PL0 Copyright (c) Steve Scherf et al.
# Submitted via: audiograbber 1.83.01
#
DISCID=300f7214
DTITLE=The Kingdom Heirs - The Classic Collection
DYEAR=2001
DGENRE=Southern Gospel
TTITLE0=I've Never Been This Homesick Before
TTITLE1=Just A Little Talk With Jesus
TTITLE2=Hallelujah I'm Going Home
TTITLE3=Feelin' At Home
TTITLE4=The Greatest Love Story
TTITLE5=God Walks The Dark Hills
TTITLE6=Jesus Will Lead Me
TTITLE7=How Great Thou Art
TTITLE8=He Touched Me
TTITLE9=The Gloryroad
TTITLE10=One Day At A Time
TTITLE11=Because He Lives
TTITLE12=I'm Not Giving Up
TTITLE13=Christian Family
TTITLE14=Sing Your Blues Away
TTITLE15=The Lighthouse
TTITLE16=First Day In Heaven
TTITLE17=The Old Rugged Cross Medley
TTITLE18=When I Wake Up
TTITLE19=Champion Of Love
EXTD=
EXTT0=
EXTT1=
EXTT2=
EXTT3=
EXTT4=
EXTT5=
EXTT6=
EXTT7=
EXTT8=
EXTT9=
EXTT10=
EXTT11=
EXTT12=
EXTT13=
EXTT14=
EXTT15=
EXTT16=
EXTT17=
EXTT18=
EXTT19=
PLAYORDER=
